<svg width="334" height="108" viewBox="0 0 334 108" fill="none" xmlns="http://www.w3.org/2000/svg">
<path d="M49.9926 20.8991C53.0909 20.2705 56.2537 20.0716 59.4125 20.1114C61.979 24.1177 64.6744 28.0365 67.3215 31.9911C67.7647 32.6038 68.1435 33.4234 67.6358 34.1236C65.7865 37.2268 63.9492 40.3419 62.0556 43.4212C60.8871 45.2712 59.9 47.2366 58.4939 48.9274C55.8911 45.2195 53.385 41.4439 50.9313 37.6366C47.4945 32.5322 44.0457 27.4278 40.6854 22.2757C43.7395 21.5834 46.87 21.1856 49.9926 20.8991Z" fill="white"/>
<path d="M97.9786 27.213C101.609 24.7582 105.408 22.5542 108.974 20C109.034 20.4615 108.99 20.8991 108.837 21.3248C96.6047 41.6946 84.3604 62.0644 72.2007 82.4819C71.7616 83.2497 71.1975 83.942 70.5246 84.5268C67.4948 79.7447 64.2272 75.1137 61.141 70.3674C60.7582 69.7627 60.7864 68.9431 61.149 68.3384C66.6285 59.2357 72.0678 50.1011 77.5513 40.9984C78.0388 40.2464 78.7399 39.6616 79.4933 39.1802C85.6658 35.2057 91.8303 31.2233 97.9786 27.213Z" fill="white"/>
<path d="M37.8248 24.2331C38.0545 24.1217 38.5178 23.9029 38.7515 23.7915C41.741 28.5497 45.0288 33.125 48.0385 37.8713C48.5904 38.7784 47.9055 39.7531 47.4663 40.5448C42.4905 48.8877 37.4662 57.2027 32.5226 65.5614C31.8658 66.5322 31.3622 67.6581 30.3872 68.3662C20.8383 74.6045 11.2491 80.7791 1.70429 87.0173C1.18857 87.3555 0.620475 87.5584 0 87.63C1.90574 83.7231 4.39167 80.1107 6.55125 76.3311C16.9905 58.9731 27.321 41.5514 37.8248 24.2331Z" fill="white"/>
<path d="M48.9934 61.3761C49.4486 60.5685 50.0611 59.8643 50.754 59.2476C56.1973 67.3318 61.5076 75.4996 66.9952 83.5521C67.4908 84.2682 67.9017 85.04 68.1636 85.8715C65.0854 86.5837 61.9307 86.7905 58.8041 87.1804C55.8347 87.7533 52.8169 87.9523 49.7992 88C46.9103 83.9619 44.3277 79.7248 41.4872 75.6588C40.8144 74.8233 41.4751 73.8327 41.9344 73.0807C44.368 69.2296 46.6807 65.3028 48.9934 61.3761Z" fill="white"/>
<path d="M182.456 25.28V86H164.884L146.024 53.156L141.424 44.14H141.332L141.7 55.364V86H127.716V25.28H145.288L164.148 58.124L168.748 67.14H168.84L168.472 55.916V25.28H182.456ZM251.475 25.28L229.947 86H211.363L189.743 25.28H206.395L217.527 61.988L220.839 73.948L224.059 62.172L235.375 25.28H251.475ZM307.744 86H302.868L295.232 66.956H266.252L258.616 86H253.74L278.028 25.28H283.456L307.744 86ZM267.908 62.724H293.576L280.696 29.788L267.908 62.724ZM323.66 25.28V86H319.06V25.28H323.66Z" fill="white"/>
</svg>
